<svg xmlns="http://www.w3.org/2000/svg" viewBox="0 100 240 280">
  <path d="M53 318c-8.2-9.9-18.4-13.4-30.7-10.6l-3.1.9-12.3 21.1a17.1 17.1 0 0028.4 19l1.3-1.9L53 318zm91-139c-10.1 8.4-20.4 33.2-6 57.9l63.2 109.4a17.1 17.1 0 0030.7-15l-1-2.1-16.7-28.9h24.7a17 17 0 0017.1-17.1 17 17 0 00-15-17l-2.1-.1h-44.5L149.7 186.8l-4.8-8.2zm5.8-63.2a17.1 17.1 0 00-22.1 4.4l-1.3 1.9-7.6 13.1-7.5-13.1a17.1 17.1 0 00-30.7 15l1 2.1 17.4 30.3-55.8 96.7H0a17 17 0 00-17.1 17.1c0 8.7 6.5 15.9 14.9 17l2.2.1h155.4c7.1-13.3-1.2-32.2-16.8-34l-2.5-.1h-53l73.3-127a17.1 17.1 0 00-6.3-23.4z" fill="currentColor"/>
</svg>